HIERARCHY
ROOT Hips
{
  OFFSET 40.9192 92.6879 18.85
  CHANNELS 6 Xposition Yposition Zposition Zrotation Xrotation Yrotation
  JOINT LeftUpLeg
  {
    OFFSET 8.64259 1.95398 -2.38835
    CHANNELS 3 Zrotation Xrotation Yrotation
    JOINT LeftLeg
    {
      OFFSET 43.7702 0 0
      CHANNELS 3 Zrotation Xrotation Yrotation
      JOINT LeftFoot
      {
        OFFSET 40.6238 0 0
        CHANNELS 3 Zrotation Xrotation Yrotation
        JOINT LeftToeBase
        {
          OFFSET 12.7242 0 0
          CHANNELS 3 Zrotation Xrotation Yrotation
          End Site
          {
            OFFSET 0 0 0
          }
        }
      }
    }
  }
  JOINT RightUpLeg
  {
    OFFSET -8.2249 1.95398 -2.59336
    CHANNELS 3 Zrotation Xrotation Yrotation
    JOINT RightLeg
    {
      OFFSET 43.5653 0 0
      CHANNELS 3 Zrotation Xrotation Yrotation
      JOINT RightFoot
      {
        OFFSET 40.6238 0 0
        CHANNELS 3 Zrotation Xrotation Yrotation
        JOINT RightToeBase
        {
          OFFSET 12.7242 0 0
          CHANNELS 3 Zrotation Xrotation Yrotation
          End Site
          {
            OFFSET 0 0 0
          }
        }
      }
    }
  }
  JOINT Spine
  {
    OFFSET 0.165834 0.87714 6.61349
    CHANNELS 3 Zrotation Xrotation Yrotation
    JOINT Spine1
    {
      OFFSET 7.38963 1.71661e-005 0
      CHANNELS 3 Zrotation Xrotation Yrotation
      JOINT Spine2
      {
        OFFSET 11.9445 1.14441e-005 0
        CHANNELS 3 Zrotation Xrotation Yrotation
        JOINT Spine3
        {
          OFFSET 14.7254 4.19617e-005 0
          CHANNELS 3 Zrotation Xrotation Yrotation
          JOINT Spine4
          {
            OFFSET 10.9679 0 0
            CHANNELS 3 Zrotation Xrotation Yrotation
            JOINT RightShoulder
            {
              OFFSET 2.46616 -1.6653 3.69651
              CHANNELS 3 Zrotation Xrotation Yrotation
              JOINT RightArm
              {
                OFFSET 13.0012 0 0
                CHANNELS 3 Zrotation Xrotation Yrotation
                JOINT RightForeArm
                {
                  OFFSET 28.7848 1.52588e-005 0
                  CHANNELS 3 Zrotation Xrotation Yrotation
                  JOINT RightHand
                  {
                    OFFSET 26.5688 1.52588e-005 0
                    CHANNELS 3 Zrotation Xrotation Yrotation
                    End Site
                    {
                      OFFSET 0 0 0
                    }
                  }
                }
              }
            }
            JOINT LeftShoulder
            {
              OFFSET 2.38034 -1.29275 -3.7523
              CHANNELS 3 Zrotation Xrotation Yrotation
              JOINT LeftArm
              {
                OFFSET 16.3182 6.10351e-005 0
                CHANNELS 3 Zrotation Xrotation Yrotation
                JOINT LeftForeArm
                {
                  OFFSET 27.0901 0 0
                  CHANNELS 3 Zrotation Xrotation Yrotation
                  JOINT LeftHand
                  {
                    OFFSET 24.5451 1.52588e-005 0
                    CHANNELS 3 Zrotation Xrotation Yrotation
                    End Site
                    {
                      OFFSET 0 0 0
                    }
                  }
                }
              }
            }
            JOINT Neck
            {
              OFFSET 5.0226 -0.0266342 0
              CHANNELS 3 Zrotation Xrotation Yrotation
              JOINT Head
              {
                OFFSET 6.69363 2.86102e-005 0
                CHANNELS 3 Zrotation Xrotation Yrotation
                End Site
                {
                  OFFSET 0 0 0
                }
              }
            }
          }
        }
      }
    }
  }
}
MOTION
Frames:	18
Frame Time:	0.0416667
84.0355 97.1814 -113.738 -107.477 -87.3976 -106.706 -165.881 12.7922 97.7656 -21.2322 -9.10921 -4.81567 68.6796 6.61514 7.35569 33.0498 2.80045 12.7491 170.019 3.61981 88.2489 -18.5527 7.30071 2.46685 73.3493 -6.94512 -3.44725 29.0232 0.512033 -8.03162 0.756925 7.71596 -88.7919 11.4176 2.07 2.19709 -0.25343 2.16467 2.10387 -22.78 1.31426 2.71736 -2.76734 1.31426 2.71735 88.8172 -46.5335 -103.543 34.563 -3.27066 15.0323 -7.07937 -23.873 -34.3336 -6.86844 -0.864512 4.48473 -88.622 -45.3063 79.8461 -3.62494 17.1729 -20.0539 33.7502 -26.1139 -114.261 8.08584 0.284097 -0.278235 -1.64972 -1.18663 9.77475 9.5478 -3.71551 -12.3698 
84.963 97.2582 -113.981 -118.99 -87.5713 -117.918 -164.902 12.6339 98.5006 -21.0128 -10.3211 -5.80128 65.4623 3.30961 5.45132 31.7396 1.61462 11.26 169.781 2.77073 87.8522 -17.4487 8.00291 2.61054 73.0211 -6.78659 -3.38485 28.2544 0.59454 -8.99677 0.676398 7.71112 -88.8461 11.4301 1.88462 2.10767 -0.241082 1.97554 2.0227 -22.7676 1.16428 2.57639 -2.75491 1.16429 2.57638 88.8578 -46.4725 -103.495 34.6876 -2.87619 15.8006 -7.21051 -22.9512 -34.4029 -6.42757 -0.817793 4.29738 -88.5144 -44.994 79.9506 -4.53126 16.6235 -19.5157 32.5527 -25.6477 -114.932 7.19567 0.19761 -0.920642 -1.28628 -0.911619 9.87347 8.92199 -3.43236 -12.5118 
86.0046 97.2374 -114.283 -127.705 -87.229 -126.158 -164.495 12.6689 98.9719 -21.2892 -9.53239 -6.20268 63.2614 1.08519 4.33966 31.8481 1.84404 9.37735 169.813 2.17526 87.7175 -16.7509 8.08908 2.41006 72.7072 -6.7928 -3.4038 28.0929 0.65898 -9.85689 0.648502 7.71708 -88.9135 11.4204 1.79759 1.98251 -0.250674 1.88308 1.90148 -22.7783 1.11886 2.4309 -2.76566 1.11885 2.43089 89.2147 -46.7522 -102.852 34.0041 -2.69885 15.8628 -7.14664 -23.2782 -34.0229 -6.20745 -0.796239 4.10711 -88.4947 -45.057 79.9955 -4.84866 16.0801 -19.1542 31.3506 -25.2293 -115.532 7.48883 0.112927 -2.00775 -0.880587 -0.75919 9.31141 8.38945 -3.09452 -11.636 
86.9494 97.1644 -114.451 -139.45 -87.4897 -137.829 -164.094 13.0535 98.7983 -22.3038 -8.9116 -6.72172 63.574 1.52301 3.82564 32.2072 2.24136 8.32663 169.438 2.5484 87.1339 -17.505 8.39803 2.41457 72.4373 -6.62898 -3.33619 29.0097 0.582886 -9.15729 0.558231 7.7168 -88.9548 11.4232 1.59871 1.92017 -0.248058 1.68166 1.84795 -22.7752 0.947893 2.31171 -2.76257 0.947882 2.31169 89.7051 -46.8166 -102.057 33.177 -2.80437 15.5516 -6.07015 -23.0321 -32.84 -5.60941 -0.761165 4.20332 -88.7242 -45.4532 79.7153 -4.9306 15.6744 -19.0297 30.2468 -24.8141 -115.957 6.73471 0.0240713 -2.94309 -0.480925 -0.664134 8.9069 8.16489 -2.89374 -11.0284 
87.7805 97.0453 -114.582 -145.686 -87.8196 -143.997 -163.633 13.8796 98.7651 -23.6112 -7.01838 -7.35069 63.8828 2.12151 4.11774 33.093 3.05998 8.07062 169.021 3.20108 86.7082 -18.4075 7.55262 2.4681 73.4957 -6.99522 -3.45808 28.2098 0.638545 -9.61711 0.52773 7.70895 -88.9973 11.4404 1.51834 1.84352 -0.230833 1.59799 1.77491 -22.7585 0.894243 2.21446 -2.74588 0.894242 2.21445 89.2778 -46.6271 -102.786 33.8192 -1.85499 16.8398 -6.65833 -21.4831 -33.2998 -5.32486 -0.740927 4.42719 -89.4959 -46.3719 78.7049 -4.3667 15.2921 -19.013 29.844 -24.5781 -116.056 6.94413 0.0197868 -3.01611 -0.264823 -0.909757 8.98342 8.55299 -3.24061 -11.3692 
88.4576 97.0074 -114.798 -152.284 -87.5039 -150.704 -163.479 14.1324 98.7693 -24.8562 -4.25082 -7.59208 63.294 1.85517 3.49856 34.8305 4.64445 7.2959 169.275 3.35677 86.4533 -19.0149 7.51746 1.96235 73.9068 -7.18087 -3.51646 27.9479 0.604176 -9.01032 0.56755 7.74519 -89.0076 11.3677 1.59222 1.81652 -0.303461 1.67062 1.74469 -22.832 0.972821 2.2109 -2.8193 0.972821 2.2109 89.3154 -46.7397 -102.696 33.5473 -1.89344 17.2174 -4.6341 -18.9683 -32.7096 -5.75947 -0.710631 4.09793 -90.3207 -47.0902 77.5899 -3.98382 15.0308 -18.8788 30.2867 -24.6118 -115.845 6.59698 0.0819041 -2.24096 -0.355717 -1.31771 8.52506 8.82979 -3.55861 -10.912 
89.1273 97.0257 -114.994 -155.022 -87.2885 -153.412 -164.016 14.7333 98.6696 -26.3182 1.17008 -7.06639 61.454 1.00717 4.08531 39.3668 8.56041 5.12089 169.612 3.31566 86.3628 -18.9293 7.47524 1.54449 73.9249 -7.18736 -3.51139 27.3188 0.623531 -9.03326 0.605669 7.77004 -89.0016 11.3175 1.67052 1.82154 -0.353585 1.74906 1.74626 -22.8825 1.04599 2.23923 -2.86988 1.04599 2.23922 89.3604 -46.9003 -102.583 33.4567 -1.56644 17.4253 -5.97119 -20.9152 -32.7066 -5.80482 -0.771919 4.60868 -90.4842 -47.0709 77.3332 -4.26943 15.6808 -19.1545 31.5853 -24.9482 -115.02 7.47436 0.131445 -1.8742 -0.133622 -1.54104 7.98713 8.75468 -3.71461 -10.8068 
89.7316 96.9574 -115.083 -156.371 -87.2182 -154.796 -165.221 15.0361 98.2713 -27.3374 8.51904 -5.87064 59.5777 0.219322 4.62801 45.7824 13.9743 4.85107 169.831 3.55274 86.1208 -19.2801 7.22152 1.23389 74.1354 -7.0819 -3.44302 26.9199 0.60146 -8.60837 0.633494 7.78995 -88.9525 11.2759 1.74846 1.91237 -0.395173 1.83093 1.83357 -22.9234 1.09306 2.34925 -2.91079 1.09307 2.34926 89.5915 -47.3539 -102.101 33.1386 -2.01091 16.9102 -5.0135 -20.9854 -31.904 -5.61065 -0.754235 4.57552 -90.0532 -46.869 77.952 -4.55947 15.8459 -19.5825 30.4373 -24.3893 -115.302 6.90931 0.138771 -1.50726 0.660343 -1.75691 6.74865 8.03674 -3.69208 -10.1698 
90.347 96.8818 -115.23 -160.917 -86.937 -159.271 -166.93 14.7797 97.8151 -28.1103 15.7641 -4.29892 59.1239 0.529911 6.24772 49.0561 17.0033 6.26158 170.102 3.58628 85.9777 -19.8323 7.33095 0.887235 74.4382 -7.00643 -3.38444 26.0977 0.610641 -8.47679 0.680447 7.83839 -88.9732 11.179 1.83155 1.8646 -0.491929 1.91184 1.7822 -23.0215 1.18665 2.32868 -3.00881 1.18667 2.32869 89.7939 -47.4867 -101.748 32.9257 -2.02472 16.842 -6.68608 -23.4077 -31.9821 -5.72914 -0.868873 5.81453 -90.2318 -47.323 77.7808 -4.51512 17.1499 -19.8354 34.4137 -25.6825 -113.835 8.95802 0.644031 3.02466 0.908881 -2.08924 6.27587 8.27209 -3.92261 -9.52114 
90.9232 96.8614 -115.15 -166.382 -87.3307 -164.692 -168.951 14.5909 97.2208 -28.6244 21.1024 -2.56102 59.8138 1.60695 7.54273 51.0717 18.3869 4.68569 170.176 3.65782 85.8217 -19.5562 8.05441 0.791645 74.3612 -6.84658 -3.31177 25.8069 0.58051 -8.06542 0.690717 7.80096 -88.9831 11.254 1.84794 1.84201 -0.416797 1.92721 1.7589 -22.9468 1.20908 2.31206 -2.93412 1.20907 2.31205 90.0316 -47.4801 -101.374 32.9659 -2.00623 16.9006 -6.34369 -22.8996 -32.0947 -4.24961 -0.722109 5.11734 -90.0636 -47.3071 78.0363 -5.16161 17.7306 -19.6277 33.6628 -25.1796 -113.229 9.48637 0.280809 -0.773766 1.08547 -2.43401 6.43965 8.08967 -4.3038 -9.75872 
91.5886 96.8211 -115.112 -156.611 -87.4986 -154.848 -170.621 13.9329 96.518 -28.4901 25.5364 -1.23275 60.3617 2.41726 8.34416 52.6786 20.6983 8.56644 170.122 3.91615 85.514 -19.2635 8.12467 0.727928 73.9804 -6.59147 -3.21263 26.237 0.550438 -7.81714 0.752452 7.73388 -88.9954 11.3879 1.96598 1.80292 -0.282713 2.0434 1.71465 -22.8142 1.33339 2.31027 -2.80154 1.33338 2.31026 90.0502 -47.4439 -101.354 32.8095 -2.11272 17.1099 -6.43058 -23.247 -32.196 -3.42124 -0.692411 5.58799 -89.7305 -47.4696 78.5852 -5.8611 18.7328 -19.0792 35.6469 -25.7011 -112.432 10.7319 0.573916 1.28048 1.13255 -2.60437 6.36028 7.95369 -4.41913 -9.46142 
92.1767 96.7969 -115.2 -143.597 -86.9587 -141.847 -171.332 12.9261 95.9022 -28.0836 26.7389 -0.677437 61.6364 3.65539 8.53067 52.6559 21.161 10.4126 170.168 3.79321 85.1967 -18.7656 8.09994 0.468355 73.8778 -6.53081 -3.18907 25.6381 0.544343 -7.6332 0.861528 7.74171 -89.0254 11.3719 2.16891 1.72322 -0.298211 2.24264 1.62608 -22.8326 1.55088 2.29528 -2.81994 1.55088 2.29527 90.1711 -47.0236 -101.265 32.7907 -2.24011 16.9692 -6.53358 -23.4848 -31.9612 -2.53228 -0.605225 4.57473 -89.894 -47.7529 78.3972 -6.922 18.3136 -17.946 32.9045 -24.8233 -113.554 9.38921 0.345753 -0.333458 1.53754 -2.66505 6.73162 7.7709 -4.54373 -9.56576 
92.8257 96.7467 -115.285 -131.397 -86.3952 -129.704 -171.353 11.9909 95.1787 -26.8184 24.6502 -0.752268 63.4725 5.60636 9.75351 51.8773 20.5452 10.8023 170.186 4.30758 84.8185 -18.937 7.44173 0.217775 73.6301 -6.39713 -3.1377 24.9122 0.578882 -7.86077 0.953976 7.69544 -89.0062 11.4631 2.36238 1.73967 -0.206751 2.43665 1.63399 -22.7429 1.73047 2.36913 -2.73029 1.73047 2.36912 90.2462 -47.3395 -101.069 32.2871 -2.01993 16.722 -5.83889 -23.514 -31.8685 -1.09677 -0.510581 4.50971 -89.4351 -47.4308 79.0316 -7.96825 18.6692 -16.9407 31.9916 -24.6822 -113.909 9.15346 0.2063 -1.42943 1.43799 -2.76164 6.42098 7.87119 -4.55503 -9.14184 
93.3648 96.7887 -115.578 -128.778 -85.3603 -127.441 -171.353 10.8342 94.407 -25.7501 23.0012 -0.92338 64.248 6.27985 9.72402 52.3942 21.0999 11.0955 169.994 4.63599 84.0673 -19.2646 5.72163 -0.0921362 72.333 -5.92085 -2.97129 23.9397 0.583992 -7.74645 1.04415 7.74792 -89.0421 11.3584 2.52444 1.65469 -0.311025 2.59481 1.54195 -22.8502 1.91055 2.33685 -2.83759 1.91055 2.33684 90.2125 -46.3172 -101.372 32.6202 -1.84055 16.8439 -6.98258 -24.2134 -32.1479 -0.353681 -0.482114 4.22004 -89.8042 -48.2711 78.6488 -8.46594 18.6376 -15.7282 32.0702 -24.7052 -114.047 9.61294 0.230705 -1.30351 1.96708 -2.85148 7.77428 7.53675 -4.88296 -9.71293 
93.8368 96.8514 -115.592 -124.923 -85.6835 -123.29 -171.424 10.9588 94.3457 -25.3664 22.8625 -0.893072 65.4728 7.13111 8.84292 51.1259 19.8942 10.9817 170.047 4.64131 84.1335 -18.0833 5.40994 -0.0574244 70.9329 -5.46571 -2.80953 22.1844 0.506495 -6.84753 1.04915 7.68648 -89.1012 11.4833 2.50748 1.53513 -0.186034 2.5726 1.42323 -22.7266 1.93028 2.21775 -2.71396 1.93028 2.21774 90.3716 -46.1843 -101.15 32.5335 -1.90518 16.8156 -5.801 -22.4306 -32.1386 -0.420574 -0.437764 3.33952 -90.0297 -48.1586 78.2805 -9.19933 18.3772 -14.0108 30.153 -23.9212 -114.82 9.56614 0.0728504 -2.86755 2.09618 -2.93845 7.96625 7.39428 -4.9931 -9.74115 
94.1696 96.8464 -115.771 -123.884 -85.6075 -122.282 -171.393 10.7622 94.132 -24.9633 23.1996 -0.991881 65.947 7.77499 9.18118 50.7644 19.6244 11.2611 170.14 4.83892 84.0074 -18.0472 5.20142 -0.216715 70.9545 -5.3369 -2.74059 21.3803 0.47838 -6.56633 1.0989 7.69143 -89.1806 11.4754 2.56928 1.37067 -0.193621 2.62711 1.2562 -22.737 2.03862 2.07954 -2.72434 2.03861 2.07955 91.0766 -45.5567 -100.164 32.5146 -2.0554 16.4387 -5.71452 -22.6424 -32.419 -1.4854 -0.524917 4.67439 -90.9911 -49.1257 77.0453 -9.01795 18.23 -13.4372 30.3052 -23.9022 -114.665 9.92451 0.108083 -2.55455 2.44014 -3.08622 9.13838 7.04228 -5.32976 -10.1291 
94.4408 96.8537 -115.904 -126.212 -85.7161 -124.801 -171.459 10.5794 93.8069 -24.6733 23.7002 -1.08699 65.701 7.75476 9.60411 51.2301 20.3439 12.4043 170.12 5.03161 83.7536 -18.4428 5.97939 -0.300795 71.1448 -5.29372 -2.71161 20.9004 0.480112 -6.55372 1.05338 7.7207 -89.1006 11.4146 2.51582 1.53739 -0.254657 2.58104 1.42513 -22.7953 1.93756 2.22242 -2.78265 1.93756 2.22241 90.6768 -46.4714 -100.592 32.1817 -1.81195 15.8631 -7.06301 -24.1118 -32.6496 -2.74818 -0.625309 4.53222 -90.9473 -48.5364 76.9722 -9.24851 17.7579 -12.9364 31.1528 -24.0679 -114.439 10.1766 0.186243 -1.85316 2.57019 -3.15881 8.38883 7.03374 -5.2675 -9.73988 
94.7012 96.8649 -116.008 -130.891 -85.7042 -129.727 -171.454 10.2652 93.5489 -24.5306 24.0919 -1.2297 65.7791 7.82916 9.63073 51.2353 20.3415 12.3743 169.857 4.93135 83.303 -18.5473 6.07984 -0.324563 71.0795 -5.2621 -2.69833 20.9951 0.468707 -6.472 1.04001 7.76922 -89.0655 11.3165 2.50503 1.6111 -0.352857 2.5735 1.49924 -22.8924 1.90513 2.28945 -2.87976 1.90513 2.28944 90.8154 -46.3781 -100.392 32.6117 -1.82738 15.1422 -6.58609 -23.7187 -31.7807 -3.68365 -0.656518 4.06568 -91.1972 -48.4525 76.5733 -8.96461 17.7427 -12.5928 31.0049 -23.8872 -114.331 10.6968 0.211314 -1.74001 2.74589 -3.19058 8.02136 6.95519 -5.22191 -9.43604 
